<svg width="242" height="37" viewBox="0 0 242 37" fill="none" xmlns="http://www.w3.org/2000/svg">
<path d="M30.1631 9.17237L25.1087 18.4515L20.1562 9.19508L25.1892 0.00390625L30.1631 9.17237Z" fill="#3333FF"/>
<path d="M25.1823 0.00283853L20.1494 9.19401L10.0781 9.10034L15.0896 0L25.1823 0.00283853Z" fill="#3333FF"/>
<path d="M15.0827 36.6499H5.08929L0 27.3906L10.0552 27.4559L15.0827 36.6499Z" fill="#3333FF"/>
<path d="M20.1072 27.3865L15.0823 36.6458L10.0547 27.4518L15.144 18.2578L20.1072 27.3865Z" fill="#3333FF"/>
<path d="M35.1921 36.6499H25.2013L20.1094 27.3906L30.1645 27.4559L35.1921 36.6499Z" fill="#3333FF"/>
<path d="M40.2192 27.3865L35.1916 36.6458L30.1641 27.4518L35.2533 18.2578L40.2192 27.3865Z" fill="#3333FF"/>
<path d="M58.6731 9.64281V12.294H59.4967C60.6557 10.4348 62.7886 9.28516 65.6323 9.28516H66.2306C70.7189 9.28516 73.4876 11.9761 73.4876 17.6759V29.7084H68.6988V18.5075C68.6988 15.2234 67.0891 13.4805 64.0226 13.4805H63.4244C60.433 13.4805 58.6731 15.2603 58.6731 18.5075V29.7084H53.9219V9.64281H58.6731V9.64281Z" fill="#3333FF"/>
<path d="M87.9208 9.28516C93.6057 9.28516 97.9464 12.3735 97.9464 18.6665V20.9231H81.8603C81.8603 24.6047 83.8805 26.3845 87.285 26.3845H87.9208C90.9872 26.3845 92.7472 25.2377 93.3079 23.14H97.7211C97.1604 27.3354 93.9061 30.1058 87.9208 30.1058H87.285C81.6001 30.1058 77.2969 27.0572 77.2969 20.7642V18.6665C77.2969 12.3735 81.5625 9.28516 87.285 9.28516H87.9208ZM81.8603 17.5169H93.383C93.1576 14.5875 91.0275 12.9667 87.9208 12.9667H87.285C84.0307 12.9667 82.0857 14.5506 81.8603 17.5169V17.5169Z" fill="#3333FF"/>
<path d="M105.017 9.64062L108.795 24.4833H109.954L113.621 9.64062H118.97L122.413 24.4833H123.684L127.574 9.64062H131.69L126.453 29.7062H119.681L116.502 16.209H115.343L112.052 29.7062H105.43L100.344 9.64062H105.02H105.017Z" fill="#3333FF"/>
<path d="M140.999 4.01953V9.63983H150.724V13.4009H140.999V22.9384C140.999 25.036 142.008 26.1828 143.881 26.1828H144.516C146.386 26.1828 147.36 25.036 147.36 22.9384V21.3545H151.626V22.9384C151.626 27.9654 148.707 30.1028 144.557 30.1028H143.921C139.545 30.1028 136.253 27.9654 136.253 22.9384V13.4009H133.297V9.63983H136.253V4.01953H141.005H140.999Z" fill="#3333FF"/>
<path d="M159.858 9.63997V11.9761H160.644C161.728 10.273 163.375 9.28516 165.956 9.28516C169.921 9.28516 172.129 11.5021 172.129 16.9236V18.0704H167.678V17.3977C167.678 14.9055 166.482 13.4805 163.826 13.4805C161.17 13.4805 159.861 14.9055 159.861 17.3977V29.7056H155.109V9.63997H159.861H159.858Z" fill="#3333FF"/>
<path d="M184.541 9.28516C190.677 9.28516 193.668 11.9761 193.668 16.5291V29.7084H188.879V27.1764H188.018C186.408 29.2344 184.241 30.1058 181.134 30.1058C177.169 30.1058 174.25 28.2068 174.25 24.0115C174.25 20.0943 176.756 17.8774 182.368 17.8774H188.877V16.5319C188.877 14.0397 187.229 12.9298 184.501 12.9298H183.865C181.322 12.9298 179.49 13.9971 179.49 16.4922H174.776C174.776 11.9392 177.917 9.28799 183.865 9.28799H184.539L184.541 9.28516ZM178.966 23.6141C178.966 25.3541 180.276 26.305 182.932 26.305C185.775 26.305 188.879 25.1582 188.879 21.7151V20.9231H182.894C180.125 20.9231 178.966 21.8343 178.966 23.6141Z" fill="#3333FF"/>
<path d="M208.071 9.28516C213.831 9.28516 217.871 12.1748 217.871 17.5169V17.7156H213.157V17.5169C213.157 15.0247 211.325 13.2818 208.071 13.2818H207.435C204.106 13.2818 202.236 15.2205 202.236 18.6239V20.8408C202.236 24.2045 204.106 26.0666 207.435 26.0666H208.071C211.287 26.0666 213.27 24.4429 213.27 22.0699V21.8712H217.984V22.0699C217.984 27.1764 213.831 30.1058 208.071 30.1058H207.435C201.45 30.1058 197.484 27.0175 197.484 20.7642V18.7062C197.484 12.453 201.45 9.28516 207.435 9.28516H208.071V9.28516Z" fill="#3333FF"/>
<path d="M231.975 9.28516C237.66 9.28516 242.001 12.3735 242.001 18.6665V20.9231H225.915C225.915 24.6047 227.935 26.3845 231.34 26.3845H231.975C235.042 26.3845 236.802 25.2377 237.363 23.14H241.776C241.215 27.3354 237.961 30.1058 231.975 30.1058H231.34C225.655 30.1058 221.352 27.0572 221.352 20.7642V18.6665C221.352 12.3735 225.617 9.28516 231.34 9.28516H231.975V9.28516ZM225.915 17.5169H237.438C237.212 14.5875 235.082 12.9667 231.975 12.9667H231.34C228.085 12.9667 226.14 14.5506 225.915 17.5169Z" fill="#3333FF"/>
</svg>
